# xmcd
#
# Track frame offsets:
#	150
#	17010
#	31226
#	46081
#	72411
#	84849
#	106010
#	121259
#	140302
#	159319
#
# Disc length: 2328 seconds
#
# Revision: 0
# Processed by: cddbd v1.5.2PL0 Copyright (c) Steve Scherf et al.
# Submitted via: audiograbber 1.83.01
#
DISCID=6c09160a
DTITLE=Crooks and Straights - Way out of Town
DYEAR=2015
DGENRE=Country
TTITLE0=Roll Over
TTITLE1=Me, I Couldn't Do It
TTITLE2=Red Robin
TTITLE3=Once in Life
TTITLE4=Right Or Wrong
TTITLE5=On My Way
TTITLE6=Time's up
TTITLE7=Lost My Baby Blues
TTITLE8=I Only Have Eyes for You
TTITLE9=Glory Bound
EXTD=
EXTT0=
EXTT1=
EXTT2=
EXTT3=
EXTT4=
EXTT5=
EXTT6=
EXTT7=
EXTT8=
EXTT9=
PLAYORDER=
